<svg width="181" height="176" viewBox="0 0 181 176" fill="none" xmlns="http://www.w3.org/2000/svg">
<g filter="url(#filter0_d)">
<ellipse cx="90.5" cy="84" rx="67.5" ry="65" fill="white"/>
</g>
<path d="M72.3054 85.0595C74.4588 82.6777 75.987 80.7875 76.8901 79.3887C77.8278 77.9521 78.2967 76.5722 78.2967 75.249C78.2967 73.9258 77.8973 72.8294 77.0985 71.9599C76.2996 71.0526 75.275 70.5989 74.0246 70.5989C71.7323 70.5989 69.5615 72.3757 67.5123 75.9295L61 71.7331C62.7019 68.8598 64.5601 66.686 66.5745 65.2116C68.6238 63.7372 71.2113 63 74.3372 63C77.4979 63 80.2591 64.0964 82.6209 66.2891C85.0174 68.444 86.2157 71.3928 86.2157 75.1355C86.2157 77.177 85.7295 79.1429 84.7569 81.0332C83.8192 82.8857 82.0652 85.2674 79.495 88.1784L72.9306 95.6072H87.3098V103.546H61.6252V96.9682L72.3054 85.0595Z" fill="#101B4D"/>
<path d="M104.475 96.4011C106.732 96.4011 108.469 95.5883 109.684 93.9627C110.935 92.2992 111.699 90.0498 111.977 87.2144C109.754 88.84 107.357 89.6528 104.787 89.6528C101.383 89.6528 98.5354 88.4431 96.2431 86.0235C93.9854 83.5662 92.8566 80.3338 92.8566 76.3264C92.8566 72.319 94.0723 69.1056 96.5035 66.686C98.9695 64.2287 102.061 63 105.777 63C108.347 63 110.57 63.5482 112.446 64.6445C114.356 65.7031 115.849 67.1964 116.926 69.1245C118.975 72.8672 120 77.5551 120 83.1881C120 86.8174 119.583 90.012 118.75 92.7718C117.951 95.4938 116.857 97.6487 115.467 99.2365C112.619 102.412 109.163 104 105.1 104C103.398 104 101.765 103.735 100.203 103.206C98.6396 102.639 97.4587 102.091 96.6598 101.562C95.861 100.994 94.9406 100.276 93.8986 99.4066L97.9623 93.1687C98.2054 93.3956 98.518 93.698 98.9001 94.0761C99.3169 94.4163 100.098 94.8889 101.245 95.4938C102.391 96.0987 103.467 96.4011 104.475 96.4011ZM105.569 82.1107C107.201 82.1107 108.556 81.6003 109.632 80.5795C110.709 79.5588 111.247 78.2167 111.247 76.5533C111.247 74.8898 110.726 73.4532 109.684 72.2434C108.643 71.0337 107.34 70.4288 105.777 70.4288C104.214 70.4288 102.929 70.9769 101.922 72.0733C100.949 73.1319 100.463 74.4929 100.463 76.1563C100.463 77.8197 100.915 79.2374 101.818 80.4094C102.721 81.5436 103.971 82.1107 105.569 82.1107Z" fill="#101B4D"/>
<defs>
<filter id="filter0_d" x="0" y="0" width="181" height="176" filterUnits="userSpaceOnUse" color-interpolation-filters="sRGB">
<feFlood flood-opacity="0" result="BackgroundImageFix"/>
<feColorMatrix in="SourceAlpha" type="matrix" values="0 0 0 0 0 0 0 0 0 0 0 0 0 0 0 0 0 0 127 0" result="hardAlpha"/>
<feOffset dy="4"/>
<feGaussianBlur stdDeviation="11.5"/>
<feComposite in2="hardAlpha" operator="out"/>
<feColorMatrix type="matrix" values="0 0 0 0 0 0 0 0 0 0 0 0 0 0 0 0 0 0 0.25 0"/>
<feBlend mode="normal" in2="BackgroundImageFix" result="effect1_dropShadow"/>
<feBlend mode="normal" in="SourceGraphic" in2="effect1_dropShadow" result="shape"/>
</filter>
</defs>
</svg>
