<svg width="32" height="32" viewBox="0 0 32 32" fill="none" xmlns="http://www.w3.org/2000/svg">
<path d="M12.2293 21.656L16 17.8853L19.7707 21.656L21.656 19.7707L17.8853 16L21.656 12.2293L19.7707 10.344L16 14.1147L12.2293 10.344L10.344 12.2293L14.1147 16L10.344 19.7707L12.2293 21.656Z" fill="#101B4D"/>
<path d="M16.0001 29.3334C23.3521 29.3334 29.3334 23.352 29.3334 16C29.3334 8.64802 23.3521 2.66669 16.0001 2.66669C8.64808 2.66669 2.66675 8.64802 2.66675 16C2.66675 23.352 8.64808 29.3334 16.0001 29.3334ZM16.0001 5.33335C21.8814 5.33335 26.6667 10.1187 26.6667 16C26.6667 21.8814 21.8814 26.6667 16.0001 26.6667C10.1187 26.6667 5.33341 21.8814 5.33341 16C5.33341 10.1187 10.1187 5.33335 16.0001 5.33335Z" fill="#101B4D"/>
</svg>
